<?xml version="1.0" encoding="UTF-8" standalone="no"?>
<svg
   width="16"
   height="16"
   viewBox="0 0 16 16"
   fill="none"
   version="1.1"
   id="svg4"
   sodipodi:docname="mailPersonal.svg"
   inkscape:version="1.1 (c68e22c387, 2021-05-23)"
   xmlns:inkscape="http://www.inkscape.org/namespaces/inkscape"
   xmlns:sodipodi="http://sodipodi.sourceforge.net/DTD/sodipodi-0.dtd"
   xmlns="http://www.w3.org/2000/svg"
   xmlns:svg="http://www.w3.org/2000/svg">
  <defs
     id="defs8">
    <clipPath
       id="clip0_61385:216">
      <rect
         width="24"
         height="24"
         fill="white"
         transform="translate(12 11.9999)"
         id="rect930" />
    </clipPath>
  </defs>
  <sodipodi:namedview
     id="namedview6"
     pagecolor="#ffffff"
     bordercolor="#666666"
     borderopacity="1.0"
     inkscape:pageshadow="2"
     inkscape:pageopacity="0.0"
     inkscape:pagecheckerboard="0"
     showgrid="false"
     inkscape:zoom="9.7669124"
     inkscape:cx="-40.647441"
     inkscape:cy="7.2182484"
     inkscape:window-width="1920"
     inkscape:window-height="1017"
     inkscape:window-x="-8"
     inkscape:window-y="-8"
     inkscape:window-maximized="1"
     inkscape:current-layer="svg4" />
  <path
     d="M7.999 0.166534C3.582 0.166534 0 3.76253 0 8.19853C0 11.7465 2.292 14.7565 5.472 15.8195C5.872 15.8935 6.018 15.6455 6.018 15.4325C6.018 15.2415 6.011 14.7365 6.007 14.0665C3.782 14.5515 3.312 12.9895 3.312 12.9895C2.949 12.0615 2.424 11.8145 2.424 11.8145C1.697 11.3165 2.478 11.3265 2.478 11.3265C3.281 11.3835 3.703 12.1545 3.703 12.1545C4.417 13.3815 5.576 13.0275 6.032 12.8215C6.104 12.3025 6.311 11.9485 6.54 11.7475C4.764 11.5445 2.896 10.8555 2.896 7.77853C2.896 6.90153 3.208 6.18453 3.72 5.62253C3.637 5.41953 3.363 4.60253 3.798 3.49753C3.798 3.49753 4.47 3.28153 5.998 4.32053C6.636 4.14253 7.32 4.05353 8.001 4.05053C8.68 4.05453 9.365 4.14253 10.004 4.32153C11.531 3.28253 12.202 3.49853 12.202 3.49853C12.638 4.60453 12.364 5.42053 12.282 5.62353C12.795 6.18553 13.104 6.90253 13.104 7.77953C13.104 10.8645 11.234 11.5435 9.452 11.7425C9.739 11.9905 9.995 12.4805 9.995 13.2295C9.995 14.3035 9.985 15.1695 9.985 15.4325C9.985 15.6475 10.129 15.8975 10.535 15.8185C13.71 14.7545 16 11.7455 16 8.19853C16 3.76253 12.418 0.166534 7.999 0.166534Z"
     fill="#C4C4CC"
     id="path2" />
  <g
     style="fill:#323238;fill-opacity:1"
     id="g946"
     transform="translate(-13.429864,-21.737557)">
    <rect
       width="48"
       height="48"
       fill="#323238"
       id="rect920"
       x="0"
       y="0"
       style="fill:#323238;fill-opacity:1" />
    <g
       clip-path="url(#clip0_61385:216)"
       id="g928"
       style="fill:#323238;fill-opacity:1">
      <path
         d="m 22.724,35.9999 c -1.107,0 -2.4,-0.006 -3.676,-0.079 -1.8669,0.042 -3.6751,-0.654 -5.032,-1.937 -1.2832,-1.3564 -1.9793,-3.1643 -1.937,-5.031 C 12,27.5099 12,26.0509 12,24.6399 c 0,-0.2134 0,-0.4267 0,-0.64 0,-0.2134 0,-0.4267 0,-0.64 0,-1.411 0,-2.87 0.079,-4.312 -0.042,-1.867 0.654,-3.6751 1.937,-5.032 1.3569,-1.283 3.1651,-1.979 5.032,-1.937 1.28,-0.073 2.569,-0.079 3.676,-0.079 h 2.553 c 1.107,0 2.4,0.006 3.677,0.079 1.8667,-0.0423 3.6746,0.6538 5.031,1.937 1.283,1.3569 1.979,3.165 1.937,5.032 0.078,1.442 0.078,2.901 0.078,4.313 0,0.2133 0,0.4266 0,0.64 0,0.2133 0,0.4263 0,0.639 0,1.411 0,2.87 -0.079,4.314 0.0423,1.8667 -0.6538,3.6746 -1.937,5.031 -1.3564,1.2832 -3.1643,1.9793 -5.031,1.937 -1.281,0.073 -2.57,0.079 -3.677,0.079 z"
         fill="#ffffff"
         id="path922"
         style="fill:#323238;fill-opacity:1" />
      <path
         d="m 29.6061,18.7885 c 0.2365,0.158 0.5145,0.2423 0.7989,0.2423 l 10e-4,0.001 c 0.3813,-5e-4 0.7468,-0.1523 1.0163,-0.4221 0.2694,-0.2698 0.4207,-0.6356 0.4207,-1.0169 0,-0.2844 -0.0843,-0.5624 -0.2423,-0.7989 -0.158,-0.2364 -0.3826,-0.4208 -0.6454,-0.5296 -0.2627,-0.1088 -0.5519,-0.1373 -0.8308,-0.0818 -0.2789,0.0555 -0.5352,0.1924 -0.7363,0.3935 -0.2011,0.2011 -0.338,0.4574 -0.3935,0.7363 -0.0555,0.279 -0.027,0.5681 0.0818,0.8308 0.1088,0.2628 0.2932,0.4874 0.5296,0.6454 z"
         fill="#323238"
         id="path924"
         style="fill:#323238;fill-opacity:1" />
      <path
         fill-rule="evenodd"
         clip-rule="evenodd"
         d="m 24.0003,30.1556 c -1.2175,-2e-4 -2.4076,-0.3614 -3.4198,-1.038 -1.0122,-0.6765 -1.8011,-1.638 -2.2668,-2.7629 -0.4658,-1.1249 -0.5876,-2.3626 -0.35,-3.5567 0.2377,-1.1941 0.8241,-2.2909 1.685,-3.1517 0.861,-0.8609 1.9579,-1.4471 3.152,-1.6845 1.1942,-0.2375 2.4319,-0.1155 3.5567,0.3505 1.1248,0.4659 2.0862,1.255 2.7625,2.2673 0.6764,1.0123 1.0374,2.2025 1.0374,3.42 -0.0015,1.6324 -0.6507,3.1976 -1.8051,4.3519 -1.1543,1.1543 -2.7194,1.8025 -4.3519,1.8041 z m 0,-10.1555 c -0.7911,0 -1.5645,0.2346 -2.2223,0.6741 -0.6578,0.4395 -1.1705,1.0643 -1.4732,1.7952 -0.3028,0.7309 -0.382,1.5351 -0.2277,2.3111 0.1544,0.7759 0.5353,1.4886 1.0948,2.048 0.5594,0.5594 1.2721,0.9404 2.048,1.0947 0.7759,0.1544 1.5802,0.0752 2.3111,-0.2276 0.7309,-0.3027 1.3556,-0.8154 1.7952,-1.4732 0.4395,-0.6578 0.6741,-1.4312 0.6741,-2.2223 0,-1.0609 -0.4214,-2.0783 -1.1716,-2.8284 -0.7501,-0.7502 -1.7675,-1.1716 -2.8284,-1.1716 z"
         fill="#323238"
         id="path926"
         style="fill:#323238;fill-opacity:1" />
    </g>
  </g>
</svg>
